<svg xmlns="http://www.w3.org/2000/svg" width="1122" height="318"><path d="M0 0h1122v318H0z"/><path fill="#EC254C" d="m209.334 53.337 3.76-.036 2.027-.022a241 241 0 0 1 4.226.014c2.148.02 4.29-.02 6.438-.064q2.061-.001 4.121.01h3.76L237 54c2.136 2.035 3.562 3.498 5 6 .478 2.89.666 5.182.615 8.06l.017 2.407c.013 2.654-.01 5.306-.033 7.96q.003 2.857.012 5.716c.01 5.17-.01 10.339-.038 15.508-.024 5.409-.021 10.817-.021 16.226a7835 7835 0 0 1-.065 27.242c-.042 10.503-.06 21.006-.063 31.509-.003 11.178-.022 22.356-.047 33.534q-.009 4.836-.013 9.67-.01 7.592-.046 15.183-.012 2.79-.012 5.578a1242 1242 0 0 1-.032 7.601l.007 2.24c-.03 2.874-.17 5.274-1.19 7.977C240 258 240 258 238.284 259.23c-4.705 1.583-9.787 1.1-14.702 1.085-2.01-.003-4.02.02-6.03.045l-3.862.002-3.525.01C207 260 207 260 204.144 258.602 202 257 202 257 201 255c-.106-2.558-.152-5.09-.154-7.648l-.013-2.42c-.014-2.69-.02-5.381-.026-8.072l-.025-5.77c-.026-6.328-.041-12.656-.055-18.985l-.017-6.528q-.033-13.574-.051-27.148-.023-19.473-.107-38.946-.056-13.682-.063-27.363a3106 3106 0 0 0-.048-16.354q-.044-7.692-.025-15.382 0-2.824-.025-5.65c-.023-2.569-.015-5.136.001-7.705l-.042-2.263c.032-2.095.032-2.095.65-5.766 2.719-3.455 4-4.801 8.334-5.663M159.334 97.369l3.76.002 2.027-.007q2.115 0 4.226.04c2.147.033 4.29.02 6.438 0q2.061.01 4.121.03l3.76.033C187 98 187 98 189.669 99.407 192 102 192 102 192.459 104.033c.188 2.677.205 5.313.172 7.996l.022 3.086c.017 3.368-.003 6.735-.024 10.104q0 3.508.007 7.016.003 7.354-.04 14.708c-.033 6.288-.027 12.576-.008 18.865.01 4.83.001 9.66-.014 14.49a1412 1412 0 0 0 .002 6.956c.005 3.24-.015 6.477-.043 9.717l.02 2.912c-.035 2.438-.116 4.719-.553 7.117-1.825 2.595-1.825 2.595-4 4-3.328.502-3.328.502-7.25.496l-2.106.005a337 337 0 0 1-4.398-.034c-2.239-.03-4.476-.021-6.715-.008q-2.14-.01-4.281-.025l-3.922-.03C156 211 156 211 153.61 209.66 152 208 152 208 151 205a67 67 0 0 1-.154-4.2l-.026-2.59-.013-2.835-.025-2.991q-.035-4.906-.055-9.814l-.017-3.383q-.039-8.859-.06-17.718a3266 3266 0 0 0-.112-18.316c-.034-4.691-.046-9.382-.051-14.073a885 885 0 0 0-.046-6.753 763 763 0 0 1-.024-9.444l-.05-2.821c.024-2.454.113-4.664.633-7.062 2.703-3.574 3.924-4.796 8.334-5.631"/><path fill="#BC334F" d="m113.875 147.469 3.984-.016 2.06.026c2.076.02 4.147 0 6.222-.026l3.984.016 3.633.013c3.242.518 3.242.518 6.11 2.426C142 152 142 152 143 154c.1 1.577.138 3.158.145 4.738l.02 2.984.003 3.235.01 3.319q.007 3.48.007 6.963c.002 3.548.02 7.097.04 10.646q.005 3.38.005 6.76l.022 3.217-.01 3.012.005 2.64c-.283 2.852-.948 4.933-2.247 7.486-3 2-3 2-6.123 2.259l-5.854.012a627 627 0 0 1-4.274-.01c-2.175-.01-4.35 0-6.524.012q-2.08 0-4.159-.007l-3.814-.007c-3.05-.243-4.753-.55-7.252-2.259-1.27-2.542-1.155-4.367-1.193-7.212l-.049-3.298c-.044-4.973-.085-9.946-.108-14.92a960 960 0 0 0-.082-7.88c-.055-3.78-.077-7.558-.091-11.338l-.07-3.564c.009-3.009.082-5.824.593-8.788 3.328-4.334 6.597-4.511 11.875-4.531"/><path fill="#FEFEFE" d="M679.945 153.102c6.898 3.015 11.518 8.03 16.055 13.898 2.891 4.97 3.346 9.144 3.398 14.766C699 184 699 184 697.727 185.734c-1.962 1.439-3.353 1.79-5.727 2.266-2.91.084-5.794.116-8.703.098l-2.539-.005c-2.67-.005-5.339-.018-8.008-.03q-2.719-.008-5.437-.014-6.657-.017-13.313-.049c2.777 4.426 2.777 4.426 6.625 7.875 4.505 1.502 8.666 1.546 13.375 1.125l3-1c3.5-.25 3.5-.25 7 0l1.938 1.125C687 199 687 199 687.438 201.938 687 205 687 205 685.625 207.188c-4.801 3.315-10.209 4.493-15.937 5.25-7.486-.889-14.974-2.853-21.188-7.25-4.351-3.683-7.374-7.38-9.504-12.692-1.81-5.704-2.433-10.86-1.621-16.8 1.356-5.849 3.666-10.539 7.71-14.993 5.082-4.751 9.624-7.461 16.29-9.39 6.628-.79 12.271-.587 18.57 1.789M419 154c5.858 3.198 9.929 7.74 13.582 13.273 2.264 4.354 3.426 8.811 3.418 13.727-.598 2.7-.598 2.7-2 5-4.99 2.23-9.55 2.264-14.898 2.195l-2.53-.008c-2.65-.011-5.298-.036-7.947-.062q-2.705-.016-5.41-.027-6.608-.035-13.215-.098a523 523 0 0 0 2.36 3.41l1.327 1.918c1.29 1.831 1.29 1.831 3.563 3.11 4.993 1.02 9.897 1.18 14.75-.438 2.697-.283 5.304-.303 8 0l2 1.125c1 1.875 1 1.875 1.438 4.813C423 205 423 205 421.625 207.188c-4.801 3.315-10.209 4.493-15.937 5.25-7.71-.915-15.19-2.984-21.625-7.438-4.124-3.598-6.78-7.567-9.028-12.543-1.947-6.501-1.867-12.763-1.035-19.457.865-3.137 2.055-5.409 4-8 .4-.6.802-1.199 1.215-1.816 3.51-4.711 7.88-7.267 13.004-10.02 8.824-3.693 18.136-2.79 26.781.836M353.375 132.188c4.32 2.394 7.037 4.586 9.625 8.812.438 3.25.438 3.25 0 6l-2 2c-2.933.293-5.14.454-8 0-3.25-1.937-3.25-1.937-6-4-4.257-1.375-8.574-1.445-13-1-3.355 1.342-5.458 2.458-8 5-.575 4.083-.575 4.083 0 8 4.888 4.088 11.937 4.997 17.988 6.486 7.203 1.912 13.23 4.863 18.638 10.084 1.751 1.982 3.177 3.806 3.98 6.348.87 4.599 1.05 8.988-.36 13.492-1.846 4.337-3.843 8.28-7.246 11.59-5.54 3.832-11.262 6.38-18 7-7.796.093-14.999-1.565-22-5-3.586-2.382-6.267-5.078-8.937-8.437-1.407-3.392-1.467-5.929-1.063-9.563l1.125-1.937C312 186 312 186 314.75 185.375L318 186c1.838 1.613 3.43 3.378 5.086 5.176 3.185 3.035 6.72 4.603 10.914 5.824 5.517.932 10.132-.453 15.313-2.344L351 194c.277-1.579.52-3.164.75-4.75l.422-2.672c.029-2.634.029-2.634-1.516-4.719-3.971-2.78-8.243-3.685-12.906-4.859-7.919-2.027-15.283-3.996-21.562-9.437-2.74-3.21-4.754-5.632-5.696-9.82-.612-4.259-.754-7.886.633-11.993 2.028-4.52 4.747-8 8.59-11.16 4.538-3.184 8.957-4.59 14.426-5.367 6.944-.541 12.86.037 19.234 2.964"/><path fill="#EC254C" d="M1016 164c2.3 1.466 4.008 3.105 6 5h3l2.188-2.437C1030 164 1030 164 1033.75 163c4.05-.26 7.503.549 11.273 2 1.977 1 1.977 1 4.352 3.125 3.034 5.367 4.783 10.555 5 16.75-.218 6.652-1.952 12.85-4.594 18.93L1048 206c-2.918.488-2.918.488-6.187.313l-3.293-.137L1036 206l.84-2.23 1.098-2.958 1.09-2.917c1.519-4.522 2.126-8.63 2.16-13.395l.042-2.781c-.247-2.915-1.017-5.073-2.23-7.719q-3.5-.061-7 0l-1 1c-.383 3.647-.72 7.29-.986 10.947-.533 5.714-1.984 10.163-5.014 15.053-1.947 2.387-3.495 3.726-6.187 5.188-4.895 1.414-9.367 2.248-14.442 1.343-3.702-1.015-6.902-2.266-10.246-4.156-3.143-3.513-4.91-6.81-6.125-11.375-.715-5.73-.953-11.244.953-16.758 1.754-3.363 3.751-5.93 6.36-8.68 6.495-3.776 13.45-4.502 20.687-2.562M896 164c2.3 1.466 4.008 3.105 6 5h3l2.188-2.437C910 164 910 164 913.75 163c4.05-.26 7.503.549 11.273 2 1.977 1 1.977 1 4.352 3.125 3.034 5.367 4.783 10.555 5 16.75-.218 6.652-1.952 12.85-4.594 18.93L928 206c-2.918.488-2.918.488-6.187.313l-3.293-.137L916 206l.84-2.23 1.097-2.958 1.09-2.917c1.52-4.522 2.127-8.63 2.16-13.395l.043-2.781c-.247-2.915-1.017-5.073-2.23-7.719q-3.5-.061-7 0l-1 1c-.383 3.647-.72 7.29-.986 10.947-.533 5.714-1.984 10.163-5.014 15.053-1.947 2.387-3.495 3.726-6.187 5.188-4.895 1.414-9.367 2.248-14.442 1.343-3.702-1.015-6.902-2.266-10.246-4.156-3.143-3.513-4.91-6.81-6.125-11.375-.715-5.73-.953-11.244.953-16.758 1.754-3.363 3.751-5.93 6.36-8.68 6.495-3.776 13.45-4.502 20.687-2.562"/><path fill="#BC334F" d="M201 191c8.48 6.256 8.48 6.256 11.781 9.402l1.85 1.748 1.869 1.787q1.974 1.863 3.95 3.723l1.872 1.766a265 265 0 0 0 5.99 5.449l1.64 1.462c2.057 1.743 2.057 1.743 4.57 3.217 2.954 1.943 5.2 3.73 7.478 6.446 1.263 4.807 1.045 9.317.75 14.25l-.086 3.836c-.28 8.806-.28 8.806-1.448 12.179C240 258 240 258 238.285 259.23c-4.705 1.583-9.787 1.1-14.702 1.085-2.01-.003-4.02.02-6.03.045l-3.862.002-3.525.01C207 260 207 260 204.144 258.602 202 257 202 257 201 255a130 130 0 0 1-.114-6.102v-3.882l.016-4.211.005-4.296q.006-5.658.024-11.314.014-5.772.02-11.543.016-11.325.049-22.652"/><path fill="#EC254C" d="m855 143 1 1c.133 1.813.133 1.813.125 4l.008 2.188L856 152l-1 1c-1.61.133-3.225.203-4.84.246l-2.97.1q-3.122.09-6.243.172l-2.974.103-2.742.076L833 154l-2 2c-.464 2.892-.464 2.892-.625 6.125l-.227 3.32L830 168l2.75-2c3.457-1.972 6.348-2.382 10.313-2.5 3.73.149 5.912.49 9.375 2 3.862 3.769 6.699 7.844 8.375 13 .554 7.395.265 13.632-2.813 20.5-2.31 3.226-4.877 5.363-8.312 7.313-5.317 1.36-10.388 2.19-15.813 1-4.112-1.246-7.358-2.81-10.875-5.313-2.32-3.08-3.78-6.341-5-10a211 211 0 0 1-.203-8.176l-.017-2.432q-.014-2.55-.02-5.097c-.01-2.587-.04-5.174-.072-7.762q-.01-2.48-.016-4.959l-.038-2.33c.016-3.722.318-6.126 1.741-9.636 1.892-3.037 3.608-4.688 6.625-6.608 9.147-2.735 19.514-2.507 29-2"/><path fill="#FEFEFE" d="M614.215 151.496c4.927 1.727 9.649 4.32 13.785 7.504l2 3c-.25 3.563-.25 3.563-1 7l-2 2c-3.732.386-6.549.62-10.023-.863q-1.989-1.08-3.973-2.168c-3.452-1.67-6.148-1.908-10.004-1.969-4.322 1.245-6.624 2.64-9.875 5.75-2.254 3.113-2.254 3.113-3.125 6.563 0 4.712.885 8.473 3 12.687 2.496 2.631 4.594 3.815 7.875 5.313 3.897.857 6.235.66 10.125-.313a178 178 0 0 0 5.063-2.625c3.233-1.7 4.653-2.375 8.375-2.375 2.562 1 2.562 1 4.5 2.125C630 195 630 195 630.125 198.313 629 202 629 202 627.645 203.683c-3.252 2.984-6.855 5.465-11.082 6.844-6.896 1.272-14.478 1.447-21.317-.183-5.563-2.245-10.185-5.97-14.246-10.344-3.165-4.236-4.966-8.832-6-14-.577-5.67-.382-10.776 1.5-16.187 2.437-5.369 5.84-9.235 10.5-12.813 8.593-5.187 17.159-7.756 27.215-5.504"/><path fill="#EC254C" d="m270.875 170.75 3.879-.062 3.738-.016 3.418-.028c3.09.356 3.09.356 5.934 1.752C290 174 290 174 291 176c.212 4.407.186 8.819.185 13.23.002 2.195.02 4.39.04 6.584q.005 2.091.005 4.182l.013 3.85C291 207 291 207 289 210c-5.209 1.736-10.797 1.225-16.251 1.24-2.175.01-4.35.041-6.524.072q-2.08.01-4.159.016l-3.814.028C255 211 255 211 252.621 209.73 251 208 251 208 250.265 206.195c-.626-5.188-.537-10.414-.577-15.632l-.088-3.721-.026-3.588-.044-3.271c.47-2.983.47-2.983 2.31-5.811 4.894-4.92 12.55-3.396 19.035-3.422"/><path fill="#FEFEFE" d="M495.563 151c2.986 1.225 4.317 2.56 6.437 5 1.54 2.993 1.54 2.993 2.98 6.445l.783 1.852a870 870 0 0 1 2.425 5.828q.825 1.971 1.654 3.941 1.512 3.597 3.006 7.2A80 80 0 0 0 515 186l.93-2.26a3378 3378 0 0 1 4.258-10.24l1.462-3.555c2.665-6.366 5.356-12.3 9.35-17.945l2.438-1.25c2.562.25 2.562.25 5.875 2.188L542 155c-.536 5.18-1.795 9.472-3.95 14.227l-.893 2.028c-.94 2.127-1.892 4.249-2.845 6.37l-1.857 4.2c-1.51 3.412-3.038 6.816-4.574 10.217-.864 1.921-1.718 3.847-2.57 5.773l-1.58 3.52-1.383 3.104c-1.256 2.386-2.226 3.92-4.348 5.561-2.937.375-2.937.375-6 0-2.294-1.415-3.74-2.576-5.15-4.884l-.925-2.14-1.071-2.439-1.112-2.623-1.179-2.709a1668 1668 0 0 1-3.688-8.58q-1.246-2.88-2.496-5.758c-8.267-19.084-8.267-19.084-8.817-22.93L488 155c2.467-2.749 3.812-4 7.563-4"/><path fill="#EC254C" d="M970.05 164.79c3.904 2.055 6.52 4.565 8.95 8.21 1.182 3.547 1.18 6.79 1.203 10.484l.017 2.224q.014 2.33.02 4.66c.01 2.36.04 4.718.072 7.077q.01 2.27.016 4.54l.038 2.115c-.023 5.087-1.114 8.442-3.366 12.9-2.283 2.726-5.096 4.563-8.3 6.113-5.128 1.685-10.376 1.408-15.7.887-4.318-1.256-7.171-3.193-10.375-6.312-1.984-3.282-2.931-5.904-3.625-9.688.089-3.048.366-6.016 1-9l1-1c1.853-.072 3.708-.084 5.563-.062l3.066.027L952 198l-.07 2.012c-.08 3.899-.132 7.28.945 11.05L954 213c2.619 1.31 5.144 1.319 8.027 1.523L964 214c1.743-2.106 1.743-2.106 3-5 .444-3.528.444-3.528.363-7.383l.002-2.11a450 450 0 0 0-.029-4.391c-.024-2.241-.02-4.48-.014-6.721-.005-5.703-.005-5.703-.322-11.395l-2-3c-2.88-.925-2.88-.925-6-1-2.176.611-2.176.611-4 2-.876 2.14-.876 2.14-1.187 4.563A176 176 0 0 1 953 184l-1 1c-1.664.098-3.333.13-5 .125l-2.75.008L942 185l-1-1c-.31-3.603-.542-6.534.719-9.945 1.51-2.814 3.31-5.086 5.531-7.368 6.973-4.278 15.16-4.838 22.8-1.898"/><path fill="#BC334F" d="M151 163q1.894 1.388 3.781 2.785l2.127 1.567c2.665 2.1 4.973 4.447 7.33 6.878 2.373 2.384 4.904 4.551 7.453 6.743a243 243 0 0 1 5.274 4.773l1.581 1.47q1.537 1.433 3.066 2.877c2.474 2.3 4.831 4.18 7.716 5.958L192 198c.727 2.219.727 2.219.625 4.5l-.023 2.281C192 207 192 207 190.416 209.108 188 211 188 211 184.672 211.502l-3.922-.006-2.106.005a337 337 0 0 1-4.398-.034c-2.239-.03-4.476-.021-6.715-.008q-2.14-.01-4.281-.025l-3.922-.03C156 211 156 211 153.61 209.66 152 208 152 208 151 205a65 65 0 0 1-.114-4.196v-2.547l.016-2.737.005-2.813c.005-2.965.018-5.93.03-8.894q.008-3.015.014-6.03.017-7.392.049-14.783"/><path fill="#9F394E" d="M102 168c5.735 4.104 10.916 8.557 16 13.438 6.763 6.452 13.57 12.811 21 18.5l2.313 1.777L143 203c-.812 2.875-.812 2.875-2 6-3 2-3 2-6.123 2.259l-5.854.012a627 627 0 0 1-4.274-.01c-2.175-.01-4.35 0-6.524.012q-2.08 0-4.159-.007l-3.814-.007c-3.05-.243-4.753-.55-7.252-2.259-1.666-3.332-1.12-7.065-1.098-10.727l.005-2.614c.005-2.761.018-5.523.03-8.284q.009-2.805.014-5.61.017-6.882.049-13.765"/><path fill="#FEFEFE" d="M478 151c2.313.875 2.313.875 4 2 1 2 1 2 1.25 4.938L483 161c-1.117 1.57-1.117 1.57-3 3-3.223 1.118-6.477 1.965-9.773 2.84-3.525 1.267-5.567 2.532-8.227 5.16-1.825 3.1-2.937 5.497-3.385 9.08l-.021 3.236-.067 3.565-.054 7.375-.067 3.56-.021 3.233c-.44 3.37-1.339 5.254-3.385 7.951-2.875 1.063-2.875 1.063-6 1-2.658-1.59-2.658-1.59-5-4-.615-3.065-.615-3.065-.594-6.637l.008-3.94.044-2.048c.042-2.04.041-4.075.034-6.115.083-8.392.836-15.248 4.797-22.678 3.834-5.078 8.04-8.66 13.711-11.582 5.194-2.076 10.362-3.671 16-3"/><path fill="#EC254C" d="M783 163c3.748-.414 7.265-.594 11 0 1.793 1.506 2.627 2.953 3.754 4.996 1.486 2.39 3.202 3.844 5.371 5.629 3.024 2.562 5.295 4.658 6.875 8.375 1.243 4.974.986 9.033-.285 13.926-1.065 3.088-2.307 4.856-4.715 7.074-4.33 2.84-8.747 4.631-13.93 5.027-3.913-.051-7.419-.587-11.07-2.027-2.697-1.702-4.983-3.525-7-6-2.692-5.313-2.14-10.152-2-16h11c1.305 2.61 1.369 5.154 1.621 8.027.307 2.285.307 2.285 2.379 4.973 2.88.925 2.88.925 6 1 2.301-.484 2.301-.484 4-2 1.46-2.188 1.46-2.188 2-5-.138-3.878-.576-6.316-2.625-9.625-1.96-1.96-3.661-3.296-5.937-4.812-2.609-1.786-3.589-2.796-5.375-5.563-1.046-2.952-1.152-4.916-1.063-8M737 163c3.748-.414 7.265-.594 11 0 1.793 1.506 2.627 2.953 3.754 4.996 1.486 2.39 3.202 3.844 5.371 5.629 3.024 2.562 5.295 4.658 6.875 8.375 1.243 4.974.986 9.033-.285 13.926-1.065 3.088-2.307 4.856-4.715 7.074-4.33 2.84-8.747 4.631-13.93 5.027-3.913-.051-7.419-.587-11.07-2.027-2.697-1.702-4.983-3.525-7-6-2.692-5.313-2.14-10.152-2-16h11c1.305 2.61 1.369 5.154 1.621 8.027.307 2.285.307 2.285 2.379 4.973 2.88.925 2.88.925 6 1 2.301-.484 2.301-.484 4-2 1.46-2.188 1.46-2.188 2-5-.138-3.878-.576-6.316-2.625-9.625-1.96-1.96-3.661-3.296-5.937-4.812-2.609-1.786-3.589-2.796-5.375-5.563-1.046-2.952-1.152-4.916-1.063-8"/><path fill="#FEFEFE" d="M557 151c2.5.188 2.5.188 5 1 1.93 1.586 2.883 2.766 4 5 .105 1.515.149 3.035.161 4.554l.03 2.863.012 3.103.017 3.184q.014 3.34.02 6.68c.01 3.404.04 6.808.072 10.212q.01 3.243.016 6.486l.038 3.084c-.014 4.187-.033 7.121-1.824 10.954C563 210 563 210 562 211c-3.375.25-3.375.25-7 0-1.875-1.25-1.875-1.25-3-3-.896-2.912-1.135-5.559-1.161-8.597l-.03-2.741-.012-2.94-.017-3.04q-.014-3.182-.02-6.362c-.01-3.242-.041-6.483-.072-9.724q-.01-3.093-.016-6.186l-.038-2.933c.014-3.974.082-6.833 1.699-10.503C554 153 554 153 557 151"/><path d="M841.5 172.688c3.5 1.312 3.5 1.312 5.375 3.187 1.733 3.273 2.095 5.728 2.375 9.438-.295 4.352-1.28 6.821-3.25 10.687-2 2-2 2-4.75 2.813-3.25.187-3.25.187-6.5-1.063C832 196 832 196 830 193c-.972-4.552-1.242-8.81-.312-13.375 1.431-2.864 2.839-4.602 5.312-6.625 3-1 3-1 6.5-.312M1006 172c3.438.063 3.438.063 7 1 2.375 2 2.375 2 4 5 1.103 3.923 1.274 7.463.559 11.477-1.054 3.698-2.028 6.006-4.809 8.71-2.75.813-2.75.813-6.375.375C1003 197 1003 197 1001.063 194.626c-1.518-5.178-1.798-10.274-1.063-15.625 1.336-2.746 1.336-2.746 3-5zM886 172c3.438.063 3.438.063 7 1 2.375 2 2.375 2 4 5 1.103 3.923 1.274 7.463.559 11.477-1.054 3.698-2.028 6.006-4.809 8.71-2.75.813-2.75.813-6.375.375C883 197 883 197 881.063 194.626c-1.518-5.178-1.798-10.274-1.063-15.625 1.336-2.746 1.336-2.746 3-5zM411 165c3.224 1.731 5.425 3.368 7.875 6.063L420 173v3h-30c1-5 1-5 2.488-6.766l1.825-1.484 1.8-1.516c4.664-3.05 9.653-2.415 14.887-1.234M675 165c3.963 2.064 6.52 4.28 9 8v3h-31c3-6 3.943-7.388 9-11 4.39-1.472 8.552-1.108 13 0"/><path fill="#EC254C" d="M558.438 128.563c3.562.437 3.562.437 6 2.062C566 133 566 133 566.438 136c-.438 3-.438 3-1.625 5.313C563 143 563 143 560.625 143.875c-2.625.125-2.625.125-5.312-.562C553 142 553 142 551.625 140.25c-.625-2.25-.625-2.25-.437-5.312.812-2.938.812-2.938 1.937-4.813C555 129 555 129 558.438 128.563"/><path fill="#BC334F" d="M552 133c7.483 6.15 7.483 6.15 10 10-1.687.625-1.687.625-4 1-2.625-.687-2.625-.687-5-2-1.375-1.812-1.375-1.812-2-4 .375-2.75.375-2.75 1-5"/></svg>